<mxfile host="app.diagrams.net" modified="2023-11-23T13:19:03.774Z" agent="Mozilla/5.0 (X11; Linux x86_64; rv:109.0) Gecko/20100101 Firefox/119.0" etag="aXuV8zkn6G03CllOKtcB" version="22.1.3" type="github">
  <diagram name="Page-1" id="fchV3p0RmqJkAe5RZHq1">
    <mxGraphModel dx="677" dy="560" grid="1" gridSize="10" guides="1" tooltips="1" connect="1" arrows="1" fold="1" page="1" pageScale="1" pageWidth="850" pageHeight="1100" math="0" shadow="0">
      <root>
        <mxCell id="0" />
        <mxCell id="1" parent="0" />
        <mxCell id="81T9GNWH93JwPoumRUOh-7" style="edgeStyle=orthogonalEdgeStyle;rounded=0;orthogonalLoop=1;jettySize=auto;html=1;exitX=0.5;exitY=1;exitDx=0;exitDy=0;entryX=0.5;entryY=0;entryDx=0;entryDy=0;" edge="1" parent="1" source="81T9GNWH93JwPoumRUOh-1" target="81T9GNWH93JwPoumRUOh-2">
          <mxGeometry relative="1" as="geometry" />
        </mxCell>
        <mxCell id="81T9GNWH93JwPoumRUOh-8" style="edgeStyle=orthogonalEdgeStyle;rounded=0;orthogonalLoop=1;jettySize=auto;html=1;exitX=0.5;exitY=1;exitDx=0;exitDy=0;entryX=0.5;entryY=0;entryDx=0;entryDy=0;" edge="1" parent="1" source="81T9GNWH93JwPoumRUOh-1" target="81T9GNWH93JwPoumRUOh-3">
          <mxGeometry relative="1" as="geometry" />
        </mxCell>
        <mxCell id="81T9GNWH93JwPoumRUOh-1" value="&lt;div&gt;20&lt;/div&gt;" style="ellipse;whiteSpace=wrap;html=1;aspect=fixed;" vertex="1" parent="1">
          <mxGeometry x="240" y="40" width="40" height="40" as="geometry" />
        </mxCell>
        <mxCell id="81T9GNWH93JwPoumRUOh-9" style="edgeStyle=orthogonalEdgeStyle;rounded=0;orthogonalLoop=1;jettySize=auto;html=1;exitX=0.5;exitY=1;exitDx=0;exitDy=0;entryX=0.5;entryY=0;entryDx=0;entryDy=0;" edge="1" parent="1" source="81T9GNWH93JwPoumRUOh-2" target="81T9GNWH93JwPoumRUOh-4">
          <mxGeometry relative="1" as="geometry" />
        </mxCell>
        <mxCell id="81T9GNWH93JwPoumRUOh-12" style="edgeStyle=orthogonalEdgeStyle;rounded=0;orthogonalLoop=1;jettySize=auto;html=1;exitX=0.5;exitY=1;exitDx=0;exitDy=0;entryX=0.5;entryY=0;entryDx=0;entryDy=0;" edge="1" parent="1" source="81T9GNWH93JwPoumRUOh-2" target="81T9GNWH93JwPoumRUOh-11">
          <mxGeometry relative="1" as="geometry" />
        </mxCell>
        <mxCell id="81T9GNWH93JwPoumRUOh-2" value="&lt;div&gt;17&lt;/div&gt;" style="ellipse;whiteSpace=wrap;html=1;aspect=fixed;" vertex="1" parent="1">
          <mxGeometry x="160" y="120" width="40" height="40" as="geometry" />
        </mxCell>
        <mxCell id="81T9GNWH93JwPoumRUOh-22" style="edgeStyle=orthogonalEdgeStyle;rounded=0;orthogonalLoop=1;jettySize=auto;html=1;exitX=0.5;exitY=1;exitDx=0;exitDy=0;entryX=0.5;entryY=0;entryDx=0;entryDy=0;" edge="1" parent="1" source="81T9GNWH93JwPoumRUOh-3" target="81T9GNWH93JwPoumRUOh-21">
          <mxGeometry relative="1" as="geometry" />
        </mxCell>
        <mxCell id="81T9GNWH93JwPoumRUOh-3" value="25" style="ellipse;whiteSpace=wrap;html=1;aspect=fixed;" vertex="1" parent="1">
          <mxGeometry x="320" y="120" width="40" height="40" as="geometry" />
        </mxCell>
        <mxCell id="81T9GNWH93JwPoumRUOh-10" style="edgeStyle=orthogonalEdgeStyle;rounded=0;orthogonalLoop=1;jettySize=auto;html=1;exitX=0.5;exitY=1;exitDx=0;exitDy=0;entryX=0.5;entryY=0;entryDx=0;entryDy=0;" edge="1" parent="1" source="81T9GNWH93JwPoumRUOh-4" target="81T9GNWH93JwPoumRUOh-5">
          <mxGeometry relative="1" as="geometry" />
        </mxCell>
        <mxCell id="81T9GNWH93JwPoumRUOh-14" style="edgeStyle=orthogonalEdgeStyle;rounded=0;orthogonalLoop=1;jettySize=auto;html=1;exitX=0.5;exitY=1;exitDx=0;exitDy=0;entryX=0.5;entryY=0;entryDx=0;entryDy=0;" edge="1" parent="1" source="81T9GNWH93JwPoumRUOh-4" target="81T9GNWH93JwPoumRUOh-13">
          <mxGeometry relative="1" as="geometry" />
        </mxCell>
        <mxCell id="81T9GNWH93JwPoumRUOh-4" value="13" style="ellipse;whiteSpace=wrap;html=1;aspect=fixed;" vertex="1" parent="1">
          <mxGeometry x="120" y="200" width="40" height="40" as="geometry" />
        </mxCell>
        <mxCell id="81T9GNWH93JwPoumRUOh-5" value="14" style="ellipse;whiteSpace=wrap;html=1;aspect=fixed;" vertex="1" parent="1">
          <mxGeometry x="160" y="280" width="40" height="40" as="geometry" />
        </mxCell>
        <mxCell id="81T9GNWH93JwPoumRUOh-11" value="18" style="ellipse;whiteSpace=wrap;html=1;aspect=fixed;" vertex="1" parent="1">
          <mxGeometry x="200" y="200" width="40" height="40" as="geometry" />
        </mxCell>
        <mxCell id="81T9GNWH93JwPoumRUOh-18" style="edgeStyle=orthogonalEdgeStyle;rounded=0;orthogonalLoop=1;jettySize=auto;html=1;exitX=0.5;exitY=1;exitDx=0;exitDy=0;entryX=0.5;entryY=0;entryDx=0;entryDy=0;" edge="1" parent="1" source="81T9GNWH93JwPoumRUOh-13" target="81T9GNWH93JwPoumRUOh-17">
          <mxGeometry relative="1" as="geometry" />
        </mxCell>
        <mxCell id="81T9GNWH93JwPoumRUOh-26" style="edgeStyle=orthogonalEdgeStyle;rounded=0;orthogonalLoop=1;jettySize=auto;html=1;exitX=0.5;exitY=1;exitDx=0;exitDy=0;entryX=0.5;entryY=0;entryDx=0;entryDy=0;" edge="1" parent="1" source="81T9GNWH93JwPoumRUOh-13" target="81T9GNWH93JwPoumRUOh-25">
          <mxGeometry relative="1" as="geometry" />
        </mxCell>
        <mxCell id="81T9GNWH93JwPoumRUOh-13" value="1" style="ellipse;whiteSpace=wrap;html=1;aspect=fixed;" vertex="1" parent="1">
          <mxGeometry x="80" y="280" width="40" height="40" as="geometry" />
        </mxCell>
        <mxCell id="81T9GNWH93JwPoumRUOh-20" style="edgeStyle=orthogonalEdgeStyle;rounded=0;orthogonalLoop=1;jettySize=auto;html=1;exitX=0.5;exitY=1;exitDx=0;exitDy=0;entryX=0.5;entryY=0;entryDx=0;entryDy=0;" edge="1" parent="1" source="81T9GNWH93JwPoumRUOh-15" target="81T9GNWH93JwPoumRUOh-19">
          <mxGeometry relative="1" as="geometry" />
        </mxCell>
        <mxCell id="81T9GNWH93JwPoumRUOh-24" style="edgeStyle=orthogonalEdgeStyle;rounded=0;orthogonalLoop=1;jettySize=auto;html=1;exitX=0.5;exitY=1;exitDx=0;exitDy=0;entryX=0.5;entryY=0;entryDx=0;entryDy=0;" edge="1" parent="1" source="81T9GNWH93JwPoumRUOh-15" target="81T9GNWH93JwPoumRUOh-23">
          <mxGeometry relative="1" as="geometry" />
        </mxCell>
        <mxCell id="81T9GNWH93JwPoumRUOh-15" value="&lt;div&gt;21&lt;/div&gt;" style="ellipse;whiteSpace=wrap;html=1;aspect=fixed;" vertex="1" parent="1">
          <mxGeometry x="280" y="200" width="40" height="40" as="geometry" />
        </mxCell>
        <mxCell id="81T9GNWH93JwPoumRUOh-16" style="edgeStyle=orthogonalEdgeStyle;rounded=0;orthogonalLoop=1;jettySize=auto;html=1;exitX=0.5;exitY=1;exitDx=0;exitDy=0;entryX=0.515;entryY=-0.065;entryDx=0;entryDy=0;entryPerimeter=0;" edge="1" parent="1" source="81T9GNWH93JwPoumRUOh-3" target="81T9GNWH93JwPoumRUOh-15">
          <mxGeometry relative="1" as="geometry" />
        </mxCell>
        <mxCell id="81T9GNWH93JwPoumRUOh-17" value="&lt;div&gt;9&lt;/div&gt;" style="ellipse;whiteSpace=wrap;html=1;aspect=fixed;" vertex="1" parent="1">
          <mxGeometry x="120" y="360" width="40" height="40" as="geometry" />
        </mxCell>
        <mxCell id="81T9GNWH93JwPoumRUOh-19" value="&lt;div&gt;24&lt;/div&gt;" style="ellipse;whiteSpace=wrap;html=1;aspect=fixed;" vertex="1" parent="1">
          <mxGeometry x="320" y="280" width="40" height="40" as="geometry" />
        </mxCell>
        <mxCell id="81T9GNWH93JwPoumRUOh-21" value="" style="ellipse;whiteSpace=wrap;html=1;aspect=fixed;" vertex="1" parent="1">
          <mxGeometry x="360" y="200" width="40" height="40" as="geometry" />
        </mxCell>
        <mxCell id="81T9GNWH93JwPoumRUOh-23" value="" style="ellipse;whiteSpace=wrap;html=1;aspect=fixed;" vertex="1" parent="1">
          <mxGeometry x="240" y="280" width="40" height="40" as="geometry" />
        </mxCell>
        <mxCell id="81T9GNWH93JwPoumRUOh-25" value="" style="ellipse;whiteSpace=wrap;html=1;aspect=fixed;" vertex="1" parent="1">
          <mxGeometry x="40" y="360" width="40" height="40" as="geometry" />
        </mxCell>
        <mxCell id="81T9GNWH93JwPoumRUOh-29" value="&lt;div&gt;20&lt;/div&gt;" style="ellipse;whiteSpace=wrap;html=1;aspect=fixed;" vertex="1" parent="1">
          <mxGeometry x="680" y="440" width="40" height="40" as="geometry" />
        </mxCell>
        <mxCell id="81T9GNWH93JwPoumRUOh-55" style="edgeStyle=orthogonalEdgeStyle;rounded=0;orthogonalLoop=1;jettySize=auto;html=1;exitX=0.5;exitY=1;exitDx=0;exitDy=0;entryX=0.5;entryY=0;entryDx=0;entryDy=0;" edge="1" parent="1" source="81T9GNWH93JwPoumRUOh-32" target="81T9GNWH93JwPoumRUOh-48">
          <mxGeometry relative="1" as="geometry" />
        </mxCell>
        <mxCell id="81T9GNWH93JwPoumRUOh-62" style="edgeStyle=orthogonalEdgeStyle;rounded=0;orthogonalLoop=1;jettySize=auto;html=1;exitX=0.5;exitY=1;exitDx=0;exitDy=0;entryX=0.5;entryY=0;entryDx=0;entryDy=0;" edge="1" parent="1" source="81T9GNWH93JwPoumRUOh-32" target="81T9GNWH93JwPoumRUOh-50">
          <mxGeometry relative="1" as="geometry" />
        </mxCell>
        <mxCell id="81T9GNWH93JwPoumRUOh-32" value="&lt;div&gt;17&lt;/div&gt;" style="ellipse;whiteSpace=wrap;html=1;aspect=fixed;" vertex="1" parent="1">
          <mxGeometry x="680" y="120" width="40" height="40" as="geometry" />
        </mxCell>
        <mxCell id="81T9GNWH93JwPoumRUOh-34" value="25" style="ellipse;whiteSpace=wrap;html=1;aspect=fixed;" vertex="1" parent="1">
          <mxGeometry x="760" y="280" width="40" height="40" as="geometry" />
        </mxCell>
        <mxCell id="81T9GNWH93JwPoumRUOh-37" value="13" style="ellipse;whiteSpace=wrap;html=1;aspect=fixed;" vertex="1" parent="1">
          <mxGeometry x="600" y="280" width="40" height="40" as="geometry" />
        </mxCell>
        <mxCell id="81T9GNWH93JwPoumRUOh-52" style="edgeStyle=orthogonalEdgeStyle;rounded=0;orthogonalLoop=1;jettySize=auto;html=1;exitX=0.5;exitY=1;exitDx=0;exitDy=0;entryX=0.5;entryY=0;entryDx=0;entryDy=0;" edge="1" parent="1" source="81T9GNWH93JwPoumRUOh-38" target="81T9GNWH93JwPoumRUOh-42">
          <mxGeometry relative="1" as="geometry" />
        </mxCell>
        <mxCell id="81T9GNWH93JwPoumRUOh-53" style="edgeStyle=orthogonalEdgeStyle;rounded=0;orthogonalLoop=1;jettySize=auto;html=1;exitX=0.5;exitY=1;exitDx=0;exitDy=0;entryX=0.5;entryY=0;entryDx=0;entryDy=0;" edge="1" parent="1" source="81T9GNWH93JwPoumRUOh-38" target="81T9GNWH93JwPoumRUOh-32">
          <mxGeometry relative="1" as="geometry" />
        </mxCell>
        <mxCell id="81T9GNWH93JwPoumRUOh-38" value="14" style="ellipse;whiteSpace=wrap;html=1;aspect=fixed;" vertex="1" parent="1">
          <mxGeometry x="600" y="40" width="40" height="40" as="geometry" />
        </mxCell>
        <mxCell id="81T9GNWH93JwPoumRUOh-61" style="edgeStyle=orthogonalEdgeStyle;rounded=0;orthogonalLoop=1;jettySize=auto;html=1;exitX=0.5;exitY=1;exitDx=0;exitDy=0;entryX=0.5;entryY=0;entryDx=0;entryDy=0;" edge="1" parent="1" source="81T9GNWH93JwPoumRUOh-39" target="81T9GNWH93JwPoumRUOh-29">
          <mxGeometry relative="1" as="geometry" />
        </mxCell>
        <mxCell id="81T9GNWH93JwPoumRUOh-66" style="edgeStyle=orthogonalEdgeStyle;rounded=0;orthogonalLoop=1;jettySize=auto;html=1;exitX=0.5;exitY=1;exitDx=0;exitDy=0;entryX=0.5;entryY=0;entryDx=0;entryDy=0;" edge="1" parent="1" source="81T9GNWH93JwPoumRUOh-39" target="81T9GNWH93JwPoumRUOh-65">
          <mxGeometry relative="1" as="geometry" />
        </mxCell>
        <mxCell id="81T9GNWH93JwPoumRUOh-39" value="18" style="ellipse;whiteSpace=wrap;html=1;aspect=fixed;" vertex="1" parent="1">
          <mxGeometry x="640" y="360" width="40" height="40" as="geometry" />
        </mxCell>
        <mxCell id="81T9GNWH93JwPoumRUOh-54" style="edgeStyle=orthogonalEdgeStyle;rounded=0;orthogonalLoop=1;jettySize=auto;html=1;exitX=0.5;exitY=1;exitDx=0;exitDy=0;entryX=0.5;entryY=0;entryDx=0;entryDy=0;" edge="1" parent="1" source="81T9GNWH93JwPoumRUOh-42" target="81T9GNWH93JwPoumRUOh-47">
          <mxGeometry relative="1" as="geometry" />
        </mxCell>
        <mxCell id="81T9GNWH93JwPoumRUOh-63" style="edgeStyle=orthogonalEdgeStyle;rounded=0;orthogonalLoop=1;jettySize=auto;html=1;exitX=0.5;exitY=1;exitDx=0;exitDy=0;entryX=0.5;entryY=0;entryDx=0;entryDy=0;" edge="1" parent="1" source="81T9GNWH93JwPoumRUOh-42" target="81T9GNWH93JwPoumRUOh-49">
          <mxGeometry relative="1" as="geometry" />
        </mxCell>
        <mxCell id="81T9GNWH93JwPoumRUOh-42" value="1" style="ellipse;whiteSpace=wrap;html=1;aspect=fixed;" vertex="1" parent="1">
          <mxGeometry x="520" y="120" width="40" height="40" as="geometry" />
        </mxCell>
        <mxCell id="81T9GNWH93JwPoumRUOh-60" style="edgeStyle=orthogonalEdgeStyle;rounded=0;orthogonalLoop=1;jettySize=auto;html=1;exitX=0.5;exitY=1;exitDx=0;exitDy=0;entryX=0.5;entryY=0;entryDx=0;entryDy=0;" edge="1" parent="1" source="81T9GNWH93JwPoumRUOh-45" target="81T9GNWH93JwPoumRUOh-39">
          <mxGeometry relative="1" as="geometry" />
        </mxCell>
        <mxCell id="81T9GNWH93JwPoumRUOh-68" style="edgeStyle=orthogonalEdgeStyle;rounded=0;orthogonalLoop=1;jettySize=auto;html=1;exitX=0.5;exitY=1;exitDx=0;exitDy=0;entryX=0.5;entryY=0;entryDx=0;entryDy=0;" edge="1" parent="1" source="81T9GNWH93JwPoumRUOh-45" target="81T9GNWH93JwPoumRUOh-67">
          <mxGeometry relative="1" as="geometry" />
        </mxCell>
        <mxCell id="81T9GNWH93JwPoumRUOh-45" value="&lt;div&gt;21&lt;/div&gt;" style="ellipse;whiteSpace=wrap;html=1;aspect=fixed;" vertex="1" parent="1">
          <mxGeometry x="680" y="280" width="40" height="40" as="geometry" />
        </mxCell>
        <mxCell id="81T9GNWH93JwPoumRUOh-56" style="edgeStyle=orthogonalEdgeStyle;rounded=0;orthogonalLoop=1;jettySize=auto;html=1;exitX=0.5;exitY=1;exitDx=0;exitDy=0;entryX=0.5;entryY=0;entryDx=0;entryDy=0;" edge="1" parent="1" source="81T9GNWH93JwPoumRUOh-47" target="81T9GNWH93JwPoumRUOh-37">
          <mxGeometry relative="1" as="geometry" />
        </mxCell>
        <mxCell id="81T9GNWH93JwPoumRUOh-64" style="edgeStyle=orthogonalEdgeStyle;rounded=0;orthogonalLoop=1;jettySize=auto;html=1;exitX=0.5;exitY=1;exitDx=0;exitDy=0;entryX=0.5;entryY=0;entryDx=0;entryDy=0;" edge="1" parent="1" source="81T9GNWH93JwPoumRUOh-47" target="81T9GNWH93JwPoumRUOh-51">
          <mxGeometry relative="1" as="geometry" />
        </mxCell>
        <mxCell id="81T9GNWH93JwPoumRUOh-47" value="&lt;div&gt;9&lt;/div&gt;" style="ellipse;whiteSpace=wrap;html=1;aspect=fixed;" vertex="1" parent="1">
          <mxGeometry x="560" y="200" width="40" height="40" as="geometry" />
        </mxCell>
        <mxCell id="81T9GNWH93JwPoumRUOh-57" style="edgeStyle=orthogonalEdgeStyle;rounded=0;orthogonalLoop=1;jettySize=auto;html=1;exitX=0.5;exitY=1;exitDx=0;exitDy=0;entryX=0.5;entryY=0;entryDx=0;entryDy=0;" edge="1" parent="1" source="81T9GNWH93JwPoumRUOh-48" target="81T9GNWH93JwPoumRUOh-34">
          <mxGeometry relative="1" as="geometry" />
        </mxCell>
        <mxCell id="81T9GNWH93JwPoumRUOh-59" style="edgeStyle=orthogonalEdgeStyle;rounded=0;orthogonalLoop=1;jettySize=auto;html=1;exitX=0.5;exitY=1;exitDx=0;exitDy=0;entryX=0.5;entryY=0;entryDx=0;entryDy=0;" edge="1" parent="1" source="81T9GNWH93JwPoumRUOh-48" target="81T9GNWH93JwPoumRUOh-45">
          <mxGeometry relative="1" as="geometry" />
        </mxCell>
        <mxCell id="81T9GNWH93JwPoumRUOh-48" value="&lt;div&gt;24&lt;/div&gt;" style="ellipse;whiteSpace=wrap;html=1;aspect=fixed;" vertex="1" parent="1">
          <mxGeometry x="720" y="200" width="40" height="40" as="geometry" />
        </mxCell>
        <mxCell id="81T9GNWH93JwPoumRUOh-49" value="" style="ellipse;whiteSpace=wrap;html=1;aspect=fixed;" vertex="1" parent="1">
          <mxGeometry x="480" y="200" width="40" height="40" as="geometry" />
        </mxCell>
        <mxCell id="81T9GNWH93JwPoumRUOh-50" value="" style="ellipse;whiteSpace=wrap;html=1;aspect=fixed;" vertex="1" parent="1">
          <mxGeometry x="640" y="200" width="40" height="40" as="geometry" />
        </mxCell>
        <mxCell id="81T9GNWH93JwPoumRUOh-51" value="" style="ellipse;whiteSpace=wrap;html=1;aspect=fixed;" vertex="1" parent="1">
          <mxGeometry x="520" y="280" width="40" height="40" as="geometry" />
        </mxCell>
        <mxCell id="81T9GNWH93JwPoumRUOh-65" value="" style="ellipse;whiteSpace=wrap;html=1;aspect=fixed;" vertex="1" parent="1">
          <mxGeometry x="600" y="440" width="40" height="40" as="geometry" />
        </mxCell>
        <mxCell id="81T9GNWH93JwPoumRUOh-67" value="" style="ellipse;whiteSpace=wrap;html=1;aspect=fixed;" vertex="1" parent="1">
          <mxGeometry x="720" y="360" width="40" height="40" as="geometry" />
        </mxCell>
      </root>
    </mxGraphModel>
  </diagram>
</mxfile>
